<svg id="Ebene_1" data-name="Ebene 1" xmlns="http://www.w3.org/2000/svg" viewBox="0 0 472 125.74"><defs><style>.cls-1{fill:#0839c1;}.cls-2{fill:#ffe000;}.cls-3{fill:#00ba58;}.cls-4{fill:red;}</style></defs><title>Unbenannt-3</title><path class="cls-1" d="M104.63,147.52l-14-51-14,51H40.76L12,60.5H49l11.2,54.34L75.31,60.5h30.63l15.13,54.34,11.2-54.34h37l-28.76,87Z" transform="translate(-12 -23.15)"/><path class="cls-2" d="M345.05,107.37a34.59,34.59,0,0,0,1.31-9c0-4.67-1.31-8.59-5.79-8.59-8.59,0-10.65,14.19-10.65,35.86v21.85H291.46v-87h27.82l6.91,36.6c.18-23.72,11.2-38.47,25.4-38.47,13.63,0,20.17,9,20.17,21.29,0,8.59-3.17,18.86-9.34,28.76Z" transform="translate(-12 -23.15)"/><path class="cls-3" d="M382.41,147.52V23.15h38.47V94.67L444.41,60.5h38.84L455.8,94.67,484,147.52H444.41l-15.13-31.19-8.4,10.27v20.92Z" transform="translate(-12 -23.15)"/><path class="cls-4" d="M279.31,78.84c-4.83-13.41-14.05-20.21-27-20.21h-1.17a24.6,24.6,0,0,0-24.21,20.26h0a24.6,24.6,0,0,0-24.21-20.26h-1.17c-12.94,0-22.16,6.79-27,20.21,0,0-8.75,21.66,15,43.45,12.88,11.8,37.35,26.6,37.35,26.6h0s24.47-14.8,37.35-26.6C288.06,100.5,279.31,78.84,279.31,78.84Z" transform="translate(-12 -23.15)"/></svg>